<!-- <svg width="42" height="32" viewBox="0 0 42 32" fill="none" xmlns="http://www.w3.org/2000/svg">
<path opacity="0.15" fill-rule="evenodd" clip-rule="evenodd" d="M1.5 6.89825C1.5 5.79369 2.39543 4.89825 3.5 4.89825H38.3C39.4046 4.89825 40.3 5.79369 40.3 6.89825V27.8871C40.3 28.9917 39.4046 29.8871 38.3 29.8871H24.2108C28.4393 28.5311 31.5 24.5686 31.5 19.8916C31.5 14.0952 26.799 9.39625 21 9.39625C15.201 9.39625 10.5 14.0952 10.5 19.8916C10.5 24.5686 13.5607 28.5311 17.7892 29.8871H3.5C2.39543 29.8871 1.5 28.9917 1.5 27.8871V6.89825ZM21 24.8894C23.7614 24.8894 26 22.6518 26 19.8916C26 17.1314 23.7614 14.8938 21 14.8938C18.2386 14.8938 16 17.1314 16 19.8916C16 22.6518 18.2386 24.8894 21 24.8894Z" fill="url(#paint0_linear)"/>
<path d="M2.04688 21.5655C2.04688 21.8199 1.84039 22.0263 1.58594 22.0263C1.33149 22.0263 1.125 21.8199 1.125 21.5655V19.1966C1.125 18.942 1.33145 18.7359 1.58594 18.7359C1.84043 18.7359 2.04688 18.942 2.04688 19.1966V21.5655Z" fill="url(#paint1_linear)" stroke="url(#paint2_linear)" stroke-width="0.25"/>
<path d="M38.7448 4.72371H36.3178V4.44734C36.3178 3.66461 35.6806 3.02738 34.8972 3.02738H34.6484V2.31999C34.6484 1.53695 34.0109 0.900024 33.2278 0.900024H30.4285C29.6454 0.900024 29.0079 1.53695 29.0079 2.31999V3.02738H28.7591C27.9758 3.02738 27.3386 3.6643 27.3386 4.44734V4.72371H18.9984V4.11363C18.9984 3.3309 18.3612 2.69366 17.5778 2.69366H16.448C15.6649 2.69366 15.0274 3.33059 15.0274 4.11363V4.72371H13.6566V3.27934C13.6566 2.49661 13.0194 1.85938 12.236 1.85938H6.09828C5.31519 1.85938 4.67768 2.49661 4.67768 3.27934V4.72371H3.25525C2.01166 4.72371 1 5.73523 1 6.97797V16.646C1 16.9696 1.26245 17.2316 1.58594 17.2316C1.90943 17.2316 2.17188 16.9696 2.17188 16.646V11.0838H5.37867C5.63654 12.0276 6.50172 12.7237 7.5265 12.7237C8.55159 12.7237 9.41646 12.0276 9.67433 11.0838H14.3277C11.6247 13.1148 9.87331 16.3458 9.87331 19.9782C9.87331 22.363 10.6283 24.5745 11.9116 26.3874H2.17188V24.1161C2.17188 23.7925 1.90943 23.5304 1.58594 23.5304C1.26245 23.5304 1 23.7925 1 24.1161V27.7796C1 29.0226 2.01166 30.0339 3.25525 30.0339H16.2491C17.6907 30.7172 19.3014 31.1 21 31.1C22.6993 31.1 24.3103 30.7169 25.7522 30.033C25.7568 30.0333 25.7611 30.0339 25.7657 30.0339H38.7448C39.9884 30.0339 41.0001 29.0226 41.0001 27.7796V6.97797C41.0001 5.73523 39.9884 4.72371 38.7448 4.72371ZM30.1797 2.31999C30.1797 2.18303 30.2914 2.07138 30.4288 2.07138H33.2278C33.3649 2.07138 33.4766 2.18272 33.4766 2.31999V3.02738H30.1801V2.31999H30.1797ZM28.5104 4.44734C28.5104 4.31038 28.6221 4.19873 28.7595 4.19873H34.8972C35.0342 4.19873 35.1459 4.31038 35.1459 4.44734V4.72371H28.5107V4.44734H28.5104ZM16.1993 4.11363C16.1993 3.97667 16.311 3.86502 16.448 3.86502H17.5778C17.7151 3.86502 17.8265 3.97667 17.8265 4.11363V4.72371H16.1993V4.11363ZM5.84956 3.27934C5.84956 3.14238 5.96125 3.03073 6.09828 3.03073H12.2363C12.3733 3.03073 12.485 3.14238 12.485 3.27934V4.72371H5.84956V3.27934ZM7.5265 11.5523C6.94514 11.5523 6.47181 11.0795 6.47181 10.4982C6.47181 9.91703 6.94514 9.44391 7.5265 9.44391C8.10817 9.44391 8.58119 9.91703 8.58119 10.4982C8.58119 11.0795 8.10817 11.5523 7.5265 11.5523ZM9.67433 9.91246C9.41646 8.96866 8.55159 8.27256 7.5265 8.27256C6.50141 8.27256 5.63654 8.96866 5.37867 9.91246H2.17188V6.97797C2.17188 6.381 2.65802 5.89507 3.25525 5.89507H38.7448C39.3421 5.89507 39.8282 6.381 39.8282 6.97797V9.91246H38.0844V7.78449C38.0844 7.46115 37.822 7.19882 37.4985 7.19882H32.0453C31.7218 7.19882 31.4594 7.46115 31.4594 7.78449V9.91246H25.7266C24.2627 9.22551 22.651 8.85671 21 8.85671C19.31 8.85671 17.7072 9.23587 16.2713 9.91246H9.67433ZM32.6312 9.91246V8.37017H36.9125V9.91246H32.6312ZM3.25525 28.8625C2.65802 28.8625 2.17188 28.3766 2.17188 27.7796V27.5588H12.8665C13.3099 28.034 13.7942 28.4705 14.3139 28.8625H3.25525ZM11.0452 19.9785C11.0452 14.4917 15.5111 10.0281 21 10.0281C23.847 10.0281 26.5637 11.2512 28.454 13.3838C28.6685 13.626 29.0387 13.6486 29.281 13.4339C29.5233 13.2194 29.5456 12.8494 29.3311 12.6071C28.8284 12.0401 28.273 11.5313 27.6761 11.0838H39.8282V26.3874H30.0885C30.9833 25.1233 31.6205 23.6652 31.9247 22.0897H33.4576C34.3219 22.0897 35.0253 21.3868 35.0253 20.5227V19.0637C35.0253 18.1995 34.3222 17.4967 33.4576 17.4967H31.8448C31.6318 16.5648 31.301 15.661 30.8569 14.816C30.7065 14.5296 30.3522 14.4191 30.0659 14.5699C29.7794 14.7202 29.6689 15.074 29.8193 15.3605C30.5621 16.7747 30.9549 18.3716 30.9549 19.9785C30.9549 25.4652 26.4892 29.9289 21 29.9289C15.5111 29.9289 11.0452 25.4649 11.0452 19.9785ZM32.0483 18.6678H33.4576C33.6758 18.6678 33.8535 18.8453 33.8535 19.0634V20.5227C33.8535 20.7408 33.6758 20.9184 33.4576 20.9184H32.0865C32.1127 20.6084 32.1268 20.2948 32.1268 19.9782C32.1268 19.5399 32.1002 19.1022 32.0483 18.6678ZM38.7448 28.8625H27.6861C28.2059 28.4705 28.6902 28.034 29.1336 27.5588H39.8282V27.7796C39.8282 28.3766 39.3421 28.8625 38.7448 28.8625Z" fill="url(#paint3_linear)" stroke="url(#paint4_linear)" stroke-width="0.25"/>
<path d="M13.2415 19.9785C13.2415 15.7022 16.7219 12.223 21.0001 12.223C25.2783 12.223 28.7587 15.7022 28.7587 19.9785C28.7587 24.2545 25.2783 27.7336 21.0001 27.7336C16.7219 27.7336 13.2415 24.2545 13.2415 19.9785ZM14.1633 19.9785C14.1633 23.7467 17.2302 26.8121 21.0001 26.8121C24.77 26.8121 27.8368 23.7467 27.8368 19.9785C27.8368 16.2103 24.77 13.1445 21.0001 13.1445C17.2302 13.1445 14.1633 16.2103 14.1633 19.9785Z" fill="url(#paint5_linear)" stroke="url(#paint6_linear)" stroke-width="0.25"/>
<path d="M15.6189 19.9785C15.6189 17.0126 18.033 14.5995 20.9999 14.5995C23.9671 14.5995 26.3812 17.0126 26.3812 19.9785C26.3812 22.9443 23.9671 25.3571 20.9999 25.3571C18.0327 25.3571 15.6189 22.9443 15.6189 19.9785ZM16.5408 19.9785C16.5408 22.4363 18.541 24.4356 20.9999 24.4356C23.4588 24.4356 25.4593 22.4363 25.4593 19.9785C25.4593 17.5204 23.4588 15.521 20.9999 15.521C18.541 15.521 16.5408 17.5204 16.5408 19.9785Z" fill="url(#paint7_linear)" stroke="url(#paint8_linear)" stroke-width="0.25"/>
<defs>
<linearGradient id="paint0_linear" x1="3.69867" y1="4.89825" x2="22.5688" y2="37.2522" gradientUnits="userSpaceOnUse">
<stop offset="0.259336" stop-color="#00AAFF"/>
<stop offset="1" stop-color="#0073E6"/>
</linearGradient>
<linearGradient id="paint1_linear" x1="1.17724" y1="18.7359" x2="2.78931" y2="19.2346" gradientUnits="userSpaceOnUse">
<stop offset="0.259336" stop-color="#00AAFF"/>
<stop offset="1" stop-color="#0073E6"/>
</linearGradient>
<linearGradient id="paint2_linear" x1="1.17724" y1="18.7359" x2="2.78931" y2="19.2346" gradientUnits="userSpaceOnUse">
<stop offset="0.259336" stop-color="#00AAFF"/>
<stop offset="1" stop-color="#0073E6"/>
</linearGradient>
<linearGradient id="paint3_linear" x1="3.26667" y1="0.900025" x2="27.6816" y2="36.6089" gradientUnits="userSpaceOnUse">
<stop offset="0.259336" stop-color="#00AAFF"/>
<stop offset="1" stop-color="#0073E6"/>
</linearGradient>
<linearGradient id="paint4_linear" x1="3.26667" y1="0.900025" x2="27.6816" y2="36.6089" gradientUnits="userSpaceOnUse">
<stop offset="0.259336" stop-color="#00AAFF"/>
<stop offset="1" stop-color="#0073E6"/>
</linearGradient>
<linearGradient id="paint5_linear" x1="14.1208" y1="12.223" x2="27.511" y2="27.0155" gradientUnits="userSpaceOnUse">
<stop offset="0.259336" stop-color="#00AAFF"/>
<stop offset="1" stop-color="#0073E6"/>
</linearGradient>
<linearGradient id="paint6_linear" x1="14.1208" y1="12.223" x2="27.511" y2="27.0155" gradientUnits="userSpaceOnUse">
<stop offset="0.259336" stop-color="#00AAFF"/>
<stop offset="1" stop-color="#0073E6"/>
</linearGradient>
<linearGradient id="paint7_linear" x1="16.2288" y1="14.5995" x2="25.5157" y2="24.8592" gradientUnits="userSpaceOnUse">
<stop offset="0.259336" stop-color="#00AAFF"/>
<stop offset="1" stop-color="#0073E6"/>
</linearGradient>
<linearGradient id="paint8_linear" x1="16.2288" y1="14.5995" x2="25.5157" y2="24.8592" gradientUnits="userSpaceOnUse">
<stop offset="0.259336" stop-color="#00AAFF"/>
<stop offset="1" stop-color="#0073E6"/>
</linearGradient>
</defs>
</svg> -->


<svg fill="#0073E6" version="1.1" id="Capa_1" xmlns="http://www.w3.org/2000/svg" xmlns:xlink="http://www.w3.org/1999/xlink" width="243px" height="243px" viewBox="0 0 419.931 419.931" xml:space="preserve"><g id="SVGRepo_bgCarrier" stroke-width="0"></g><g id="SVGRepo_tracerCarrier" stroke-linecap="round" stroke-linejoin="round"></g><g id="SVGRepo_iconCarrier"> <g> <g> <g> <path d="M282.895,352.367c-2.176-1.324-4.072-3.099-5.579-5.25c-0.696-0.992-1.284-2.041-1.771-3.125H28.282V100.276h335.624 v159.138c7.165,0.647,13.177,5.353,15.701,11.797c2.235-1.225,4.726-1.982,7.344-2.213c1.771-0.154,3.53-0.044,5.236,0.293 V39.561c0-12.996-10.571-23.569-23.566-23.569H23.568C10.573,15.992,0,26.565,0,39.561v309.146 c0,12.996,10.573,23.568,23.568,23.568h257.179c-2.007-4.064-2.483-8.652-1.302-13.066 C280.126,356.67,281.304,354.354,282.895,352.367z M338.025,55.569c0-4.806,3.896-8.703,8.702-8.703h8.702 c4.807,0,8.702,3.896,8.702,8.703v9.863c0,4.806-3.896,8.702-8.702,8.702h-8.702c-4.807,0-8.702-3.896-8.702-8.702V55.569z M297.56,55.569c0-4.806,3.896-8.703,8.702-8.703h8.703c4.807,0,8.702,3.896,8.702,8.703v9.863c0,4.806-3.896,8.702-8.702,8.702 h-8.703c-4.806,0-8.702-3.896-8.702-8.702V55.569z M257.094,55.569c0-4.806,3.897-8.703,8.702-8.703h8.702 c4.807,0,8.703,3.896,8.703,8.703v9.863c0,4.806-3.896,8.702-8.703,8.702h-8.702c-4.805,0-8.702-3.896-8.702-8.702V55.569z"></path> <path d="M419.875,335.77l-2.615-14.83c-0.353-1.997-2.256-3.331-4.255-2.979l-13.188,2.324c-1.583-3.715-3.605-7.195-6.005-10.38 l8.614-10.268c0.626-0.744,0.931-1.709,0.847-2.68c-0.086-0.971-0.554-1.867-1.3-2.494l-11.534-9.68 c-0.746-0.626-1.713-0.93-2.683-0.845c-0.971,0.085-1.867,0.552-2.493,1.298l-8.606,10.26c-3.533-1.8-7.312-3.188-11.271-4.104 v-13.392c0-2.028-1.645-3.674-3.673-3.674h-15.06c-2.027,0-3.673,1.646-3.673,3.674v13.392 c-3.961,0.915-7.736,2.304-11.271,4.104l-8.608-10.259c-1.304-1.554-3.62-1.756-5.175-0.453l-11.535,9.679 c-0.746,0.627-1.213,1.523-1.299,2.494c-0.084,0.971,0.22,1.937,0.846,2.683l8.615,10.266c-2.396,3.184-4.422,6.666-6.005,10.38 l-13.188-2.325c-1.994-0.351-3.901,0.982-4.255,2.979l-2.614,14.83c-0.169,0.959,0.05,1.945,0.607,2.744 c0.561,0.799,1.41,1.342,2.37,1.511l13.198,2.326c0.215,4.089,0.927,8.045,2.073,11.812l-11.6,6.695 c-0.844,0.485-1.459,1.289-1.712,2.229c-0.252,0.941-0.119,1.943,0.367,2.787l7.529,13.041c0.485,0.844,1.289,1.459,2.229,1.711 c0.313,0.084,0.632,0.125,0.951,0.125c0.639,0,1.272-0.166,1.836-0.492l11.609-6.703c2.73,2.925,5.812,5.517,9.18,7.709 l-4.584,12.593c-0.332,0.916-0.289,1.926,0.123,2.809s1.157,1.566,2.072,1.898l14.148,5.149c0.406,0.148,0.832,0.224,1.257,0.224 c0.53,0,1.063-0.115,1.554-0.345c0.883-0.411,1.564-1.157,1.897-2.073l4.583-12.593c1.965,0.238,3.965,0.361,5.994,0.361 s4.029-0.125,5.994-0.361l4.584,12.593c0.332,0.916,1.016,1.662,1.897,2.073c0.49,0.229,1.021,0.345,1.554,0.345 c0.424,0,0.85-0.074,1.256-0.224l14.15-5.149c0.913-0.332,1.659-1.017,2.07-1.898c0.412-0.883,0.456-1.893,0.123-2.809 l-4.584-12.591c3.365-2.192,6.447-4.786,9.18-7.709l11.609,6.703c0.563,0.324,1.197,0.492,1.836,0.492 c0.318,0,0.64-0.043,0.951-0.125c0.941-0.252,1.743-0.869,2.229-1.711l7.529-13.043c0.486-0.842,0.619-1.846,0.367-2.787 c-0.253-0.938-0.868-1.742-1.712-2.229l-11.598-6.693c1.146-3.768,1.856-7.724,2.071-11.812l13.198-2.327 c0.96-0.169,1.812-0.712,2.37-1.511C419.825,337.715,420.044,336.729,419.875,335.77z M354.184,359.336 c-11.155,0-20.2-9.045-20.2-20.201s9.046-20.2,20.2-20.2c11.156,0,20.201,9.044,20.201,20.2S365.34,359.336,354.184,359.336z"></path> <g> <path d="M164.695,235.373c0-4.752-2.785-9.117-7.096-11.119l-39.455-18.332l39.456-18.334c4.31-2.004,7.095-6.368,7.095-11.118 v-0.319c0-4.21-2.119-8.075-5.665-10.334c-1.962-1.253-4.247-1.916-6.606-1.916c-1.778,0-3.563,0.391-5.16,1.133l-63.078,29.333 c-4.309,2.004-7.092,6.368-7.092,11.117v0.877c0,4.743,2.782,9.104,7.093,11.118l63.084,29.336 c1.631,0.755,3.368,1.138,5.162,1.138c2.338,0,4.616-0.664,6.597-1.924c3.548-2.268,5.666-6.13,5.666-10.335L164.695,235.373 L164.695,235.373z"></path> <path d="M226.932,134.012c-2.301-3.15-6.002-5.03-9.901-5.03h-0.314c-5.354,0-10.048,3.425-11.679,8.516L163.478,266.27 c-1.183,3.718-0.517,7.813,1.781,10.962c2.301,3.148,6.002,5.029,9.901,5.029h0.315c5.352,0,10.043-3.426,11.672-8.516 l41.555-128.762C229.896,141.268,229.234,137.167,226.932,134.012z"></path> <path d="M308.001,194.366l-63.079-29.333c-1.592-0.74-3.374-1.131-5.152-1.131c-2.358,0-4.644,0.661-6.605,1.912 c-3.552,2.263-5.671,6.127-5.671,10.337v0.319c0,4.746,2.783,9.111,7.097,11.123l39.454,18.33l-39.455,18.331 c-4.311,2.002-7.096,6.367-7.096,11.119v0.321c0,4.205,2.119,8.066,5.669,10.336c1.974,1.258,4.254,1.923,6.595,1.923 c1.792,0,3.527-0.383,5.169-1.141l63.082-29.336c4.307-2.009,7.088-6.371,7.088-11.114v-0.877 C315.094,200.735,312.311,196.371,308.001,194.366z"></path> </g> </g> </g> </g> </g></svg>